# xmcd
#
# Track frame offsets: 
#        150
#        17011
#        32144
#        54802
#        70109
#        85053
#        100479
#        118745
#        132356
#        145036
#        165653
#
# Disc length: 2447 seconds
#
# Revision: 0
# Processed by: cddbd v1.5.2PL0 Copyright (c) Steve Scherf et al.
# Submitted via: ExactAudioCopy v0.99pb5
#
DISCID=8c098d0b
DTITLE=Michael Dotson - A fork in the road
DYEAR=2010
DGENRE=Blues
TTITLE0=Gutbucket Boogie
TTITLE1=Yeah Now Baby
TTITLE2=A Fork In The Road
TTITLE3=Syncro Boogie
TTITLE4=Swingy Dingy Baby
TTITLE5=Truth Like Rain
TTITLE6=Ain't Nuthin'Like A Boogie
TTITLE7=Everybody Do Something
TTITLE8=Git Go Blues
TTITLE9=Hard Times A' Comin'
TTITLE10=Lightnin'In My Pocket
EXTD=
EXTT0=
EXTT1=
EXTT2=
EXTT3=
EXTT4=
EXTT5=
EXTT6=
EXTT7=
EXTT8=
EXTT9=
EXTT10=
PLAYORDER=
